# xmcd CD database file
#
# Track frame offsets:
#	150
#	35135
#	83293
#	132053
#	139008
#	182918
#	213465
#	227365
#	262385
#	285573
#
# Disc length: 4258 seconds
#
# Revision: 1
# Processed by: cddbd v1.5.2PL0 Copyright (c) Steve Scherf et al.
# Submitted via: CDex 1.70beta2
#
DISCID=8c10a00a
DTITLE=五十嵐一生 - Golden Lips
DYEAR=1995
DGENRE=Jazz
TTITLE0=Ligia
TTITLE1=My Man's gone now
TTITLE2=It could happens to you
TTITLE3=scene #1
TTITLE4=Sweet and Lovely
TTITLE5=Bossa for Tom
TTITLE6=scene #2
TTITLE7=The Buzzard Song
TTITLE8=Blue Monk
TTITLE9=Catch The Wind
EXTD=YEAR: 1995
EXTT0=
EXTT1=
EXTT2=
EXTT3=
EXTT4=
EXTT5=
EXTT6=
EXTT7=
EXTT8=
EXTT9=
PLAYORDER=
